<svg width="16" height="15" xmlns="http://www.w3.org/2000/svg"><path d="M4 1h8v1h1v2h1v6h-1v3h-5v-1h4v-1h-3v-1h-1v-1h1v1h3v-1h1v-4h-4v1h-1v2h-1v-1h-1v3h-1v3h-1v-2h-1v-1h-1v-6h1v-2h1v-1M5 2h-1v3h1v-1h2v1h1v-1h4v-2h-7M10 6h1v2h-1z" fill="#000000"/><path d="M4 2h1v1h2v-1h2v1h2v-1h1v1h-1v1h-2v-1h-2v1h-2v-1h-1z" fill="#e6b3dd"/><path d="M5 2h1v1h-1v-1M10 2h1v1h-1v-1M8 3h1v1h-1v1h-1v-1h1v-1M4 4h1v1h-1v-1M4 13h5v1h-5z" fill="#a90e0e"/><path d="M6 2h1v1h1v1h-1v-1h-1v-1M9 2h1v1h-1v-1M4 3h1v1h-1v-1M11 3h1v1h-1z" fill="#cd809d"/><path d="M9 5h4v4h-1v1h-3v1h3v1h-4v1h-3v-3h1v-3h1v1h1v-2h1v-1M10 6v2h1v-2h-1M8 9v1h1v-1z" fill="#fff0d9"/></svg>